<?xml version="1.0" encoding="UTF-8" standalone="no"?>
<!-- Created with Inkscape (http://www.inkscape.org/) -->

<svg
   width="128.00006"
   height="128"
   viewBox="0 0 33.866683 33.866666"
   version="1.1"
   id="svg5"
   xml:space="preserve"
   inkscape:version="1.2.2 (732a01da63, 2022-12-09)"
   sodipodi:docname="altium.svg"
   xmlns:inkscape="http://www.inkscape.org/namespaces/inkscape"
   xmlns:sodipodi="http://sodipodi.sourceforge.net/DTD/sodipodi-0.dtd"
   xmlns="http://www.w3.org/2000/svg"
   xmlns:svg="http://www.w3.org/2000/svg"><sodipodi:namedview
     id="namedview7"
     pagecolor="#ffffff"
     bordercolor="#000000"
     borderopacity="0.25"
     inkscape:showpageshadow="2"
     inkscape:pageopacity="0.0"
     inkscape:pagecheckerboard="0"
     inkscape:deskcolor="#d1d1d1"
     inkscape:document-units="mm"
     showgrid="false"
     inkscape:zoom="2.8284271"
     inkscape:cx="1.5909903"
     inkscape:cy="2.4748737"
     inkscape:window-width="1920"
     inkscape:window-height="1017"
     inkscape:window-x="-8"
     inkscape:window-y="1072"
     inkscape:window-maximized="1"
     inkscape:current-layer="g353" /><defs
     id="defs2"><linearGradient
       id="a"
       gradientTransform="matrix(0.4217,0,0,-0.4217,149.8842,212.399)"
       gradientUnits="userSpaceOnUse"
       x1="-256.81589"
       x2="-319.15302"
       y1="-187.97391"
       y2="-81.333199"><stop
         offset="0"
         stop-color="#d9c185"
         id="stop524" /><stop
         offset="1"
         stop-color="#8e783e"
         id="stop526" /></linearGradient><linearGradient
       id="b"
       gradientTransform="matrix(0.4217,0,0,-0.4217,149.8842,212.399)"
       gradientUnits="userSpaceOnUse"
       x1="-364.26901"
       x2="-262.14819"
       y1="188.44659"
       y2="404.81369"><stop
         offset=".18"
         stop-color="#d9c185"
         id="stop529" /><stop
         offset="1"
         stop-color="#907c44"
         id="stop531" /></linearGradient><linearGradient
       id="c"
       gradientTransform="matrix(0.4217,0,0,-0.4217,149.8842,212.399)"
       gradientUnits="userSpaceOnUse"
       x1="-340.08929"
       x2="-136.2995"
       y1="-126.0891"
       y2="183.96159"><stop
         offset="0"
         stop-color="#d9c185"
         id="stop534" /><stop
         offset=".28"
         stop-color="#c8b176"
         id="stop536" /><stop
         offset="1"
         stop-color="#9f8951"
         id="stop538" /></linearGradient><linearGradient
       id="d"
       gradientTransform="matrix(0.4217,0,0,-0.4217,149.8842,212.399)"
       gradientUnits="userSpaceOnUse"
       x1="-108.7146"
       x2="-108.7146"
       y1="503.689"
       y2="-297.1073"><stop
         offset="0"
         stop-color="#d9c185"
         id="stop541" /><stop
         offset=".23"
         stop-color="#ceb67a"
         id="stop543" /><stop
         offset=".62"
         stop-color="#b0995e"
         id="stop545" /><stop
         offset="1"
         stop-color="#8e783e"
         id="stop547" /></linearGradient><linearGradient
       id="a-6"
       gradientTransform="matrix(0.4217,0,0,-0.4217,149.8842,212.399)"
       gradientUnits="userSpaceOnUse"
       x1="-256.81589"
       x2="-319.15302"
       y1="-187.97391"
       y2="-81.333199"><stop
         offset="0"
         stop-color="#d9c185"
         id="stop524-2" /><stop
         offset="1"
         stop-color="#8e783e"
         id="stop526-4" /></linearGradient><linearGradient
       id="b-9"
       gradientTransform="matrix(0.4217,0,0,-0.4217,149.8842,212.399)"
       gradientUnits="userSpaceOnUse"
       x1="-364.26901"
       x2="-262.14819"
       y1="188.44659"
       y2="404.81369"><stop
         offset=".18"
         stop-color="#d9c185"
         id="stop529-3" /><stop
         offset="1"
         stop-color="#907c44"
         id="stop531-3" /></linearGradient><linearGradient
       id="c-9"
       gradientTransform="matrix(0.4217,0,0,-0.4217,149.8842,212.399)"
       gradientUnits="userSpaceOnUse"
       x1="-340.08929"
       x2="-136.2995"
       y1="-126.0891"
       y2="183.96159"><stop
         offset="0"
         stop-color="#d9c185"
         id="stop534-0" /><stop
         offset=".28"
         stop-color="#c8b176"
         id="stop536-6" /><stop
         offset="1"
         stop-color="#9f8951"
         id="stop538-7" /></linearGradient><linearGradient
       id="d-4"
       gradientTransform="matrix(0.4217,0,0,-0.4217,149.8842,212.399)"
       gradientUnits="userSpaceOnUse"
       x1="-108.7146"
       x2="-108.7146"
       y1="503.689"
       y2="-297.1073"><stop
         offset="0"
         stop-color="#d9c185"
         id="stop541-5" /><stop
         offset=".23"
         stop-color="#ceb67a"
         id="stop543-5" /><stop
         offset=".62"
         stop-color="#b0995e"
         id="stop545-1" /><stop
         offset="1"
         stop-color="#8e783e"
         id="stop547-3" /></linearGradient></defs><g
     inkscape:label="Layer 1"
     inkscape:groupmode="layer"
     id="layer1"
     transform="translate(5.2187255,-131.7016)"><g
       id="g353"
       transform="matrix(0.26458333,0,0,0.26458333,-5.183091,132.09501)"><g
         id="g742"
         transform="matrix(0.37903465,0,0,0.37903465,25.450188,-1.4869038)"
         style="stroke-width:2.63828"><path
           clip-rule="evenodd"
           d="m 50.8,226.3 v 60 l -36.9,21.3 c -1.4,0.8 -2.9,1.2 -4.5,1.2 -2.4,0 -4.8,-1 -6.5,-2.7 C 1.1,304.4 0.1,302 0,299.6 v -37.1 -1.1 c 0,-1.8 0.5,-3.6 1.4,-5.2 0.9,-1.6 2.3,-2.8 3.9,-3.6 z"
           fill="url(#a)"
           fill-rule="evenodd"
           id="path580"
           style="fill:url(#a-6);stroke-width:10.2127" /><path
           clip-rule="evenodd"
           d="m 13.8,29.6 c 0.2,0.1 37.1,21.6 37.1,21.6 v 54.7 c 0,0.4 -0.1,0.9 -0.3,1.2 -0.2,0.4 -0.5,0.7 -0.9,0.9 L 3.6,135.3 c -0.4,0.2 -0.8,0.3 -1.2,0.3 -0.4,0 -0.9,-0.1 -1.2,-0.3 C 0.8,135.1 0.5,134.8 0.3,134.4 0.1,134 0,133.5 0,133.1 V 38 c 0,-2.5 1,-4.9 2.8,-6.7 1.8,-1.8 4.1,-2.8 6.6,-2.8 1.2,0 2.3,0.2 3.4,0.6 z"
           fill="url(#b)"
           fill-rule="evenodd"
           id="path582"
           style="fill:url(#b-9);stroke-width:10.2127" /><path
           clip-rule="evenodd"
           d="m 0,261.3 v -57.4 c 0,-2.2 0.6,-4.3 1.6,-6.1 1,-1.8 2.6,-3.4 4.4,-4.5 l 91.6,-53.4 c 0.4,-0.2 0.8,-0.3 1.2,-0.3 0.4,0 0.8,0.1 1.2,0.3 0.4,0.2 0.7,0.5 0.9,0.9 0.2,0.4 0.3,0.8 0.3,1.2 v 53.8 c 0,0.4 -0.1,0.9 -0.3,1.2 -0.2,0.4 -0.5,0.7 -0.9,0.9 L 5.4,252.7 c -1.6,0.8 -3,2 -3.9,3.6 -1,1.4 -1.5,3.2 -1.5,5 z"
           fill="url(#c)"
           fill-rule="evenodd"
           id="path584"
           style="fill:url(#c-9);stroke-width:10.2127" /><path
           clip-rule="evenodd"
           d="m 14.1,307.4 132.4,-77 c 1.8,-1.1 3.4,-2.6 4.4,-4.5 1.1,-1.9 1.6,-4 1.6,-6.1 V 117.5 c 0,-2.2 -0.6,-4.3 -1.6,-6.1 -1.1,-1.9 -2.6,-3.4 -4.4,-4.5 L 14.1,29.8 C 12.7,29 11.1,28.5 9.4,28.5 8.2,28.6 7,28.8 5.9,29.2 L 53.3,1.6 c 1.8,-1.1 3.9,-1.6 6,-1.6 2.1,0 4.2,0.6 6,1.6 l 131.4,76.5 c 1.8,1.1 3.4,2.6 4.4,4.5 1.1,1.9 1.6,4 1.6,6.1 v 161 c 0,2.1 -0.6,4.3 -1.6,6.1 -1.1,1.9 -2.6,3.4 -4.4,4.5 L 66.4,336.1 c -1.8,1.1 -3.9,1.6 -6,1.6 -2.1,0 -4.2,-0.6 -6,-1.6 l -49,-28.4 c 1.4,0.7 2.9,1 4.4,0.9 1.5,0 2.9,-0.5 4.3,-1.2 z"
           fill="url(#d)"
           fill-rule="evenodd"
           id="path586"
           style="fill:url(#d-4);stroke-width:10.2127" /></g></g></g></svg>
