<?xml version="1.0" encoding="UTF-8" standalone="no"?>
<svg
   width="128"
   height="128"
   viewBox="0 0 128 128"
   version="1.1"
   id="svg30"
   sodipodi:docname="codium.svg"
   inkscape:version="1.2.2 (732a01da63, 2022-12-09)"
   xmlns:inkscape="http://www.inkscape.org/namespaces/inkscape"
   xmlns:sodipodi="http://sodipodi.sourceforge.net/DTD/sodipodi-0.dtd"
   xmlns="http://www.w3.org/2000/svg"
   xmlns:svg="http://www.w3.org/2000/svg"
   xmlns:rdf="http://www.w3.org/1999/02/22-rdf-syntax-ns#"
   xmlns:cc="http://creativecommons.org/ns#"
   xmlns:dc="http://purl.org/dc/elements/1.1/">
  <sodipodi:namedview
     id="namedview32"
     pagecolor="#ffffff"
     bordercolor="#000000"
     borderopacity="0.25"
     inkscape:showpageshadow="2"
     inkscape:pageopacity="0.0"
     inkscape:pagecheckerboard="0"
     inkscape:deskcolor="#d1d1d1"
     showgrid="false"
     inkscape:zoom="0.42089844"
     inkscape:cx="319.55452"
     inkscape:cy="239.96288"
     inkscape:window-width="1920"
     inkscape:window-height="1017"
     inkscape:window-x="-8"
     inkscape:window-y="1072"
     inkscape:window-maximized="1"
     inkscape:current-layer="svg30" />
  <!-- Generator: Sketch 51.2 (57519) - http://www.bohemiancoding.com/sketch -->
  <title
     id="title2">codium_blue_light</title>
  <desc
     id="desc4">Created with Sketch.</desc>
  <defs
     id="defs21">
    <circle
       id="path-1"
       cx="512"
       cy="512"
       r="465" />
    <filter
       x="-0.01344086"
       y="-0.01344086"
       width="1.0268817"
       height="1.0322582"
       filterUnits="objectBoundingBox"
       id="filter-2">
      <feMorphology
         radius="0.5"
         operator="dilate"
         in="SourceAlpha"
         result="shadowSpreadOuter1"
         id="feMorphology7" />
      <feOffset
         dx="0"
         dy="5"
         in="shadowSpreadOuter1"
         result="shadowOffsetOuter1"
         id="feOffset9" />
      <feGaussianBlur
         stdDeviation="5"
         in="shadowOffsetOuter1"
         result="shadowBlurOuter1"
         id="feGaussianBlur11" />
      <feColorMatrix
         values="0 0 0 0 0   0 0 0 0 0   0 0 0 0 0  0 0 0 0.35 0"
         type="matrix"
         in="shadowBlurOuter1"
         id="feColorMatrix13" />
    </filter>
    <linearGradient
       x1="218.18649"
       y1="188.49928"
       x2="815.12"
       y2="779.58051"
       id="linearGradient-3"
       gradientTransform="matrix(0.19569633,0,0,0.20728444,-39.120411,-39.072968)"
       gradientUnits="userSpaceOnUse">
      <stop
         stop-color="#56CCF2"
         offset="0%"
         id="stop16" />
      <stop
         stop-color="#2F80ED"
         offset="100%"
         id="stop18" />
    </linearGradient>
  </defs>
  <path
     d="M 81.573139,2.2133815 C 82.413829,0.88757154 83.918809,0.00553154 85.498199,2.1538603e-5 87.711569,-0.00597846 89.817429,1.2376315 91.099139,3.0072115 c 1.20729,1.69241 1.5794,3.83135 1.58216,5.87382 -0.0193,2.8721405 -0.68083,5.6946605 -1.46915,8.4427505 -1.9708,6.48574 -4.64723,12.73166 -6.6456,19.20913 -2.20233,7.35123 -3.25802,15.54315 -0.30044,22.84201 1.54632,-4.31647 3.0761,-8.64121 4.61691,-12.9632 0.43826,-1.14113 1.01435,-2.43938 2.23817,-2.90796 1.70344,-0.6064 3.43995,1.17145 3.39033,2.81701 -0.46582,2.39803 -1.36991,4.68306 -2.08105,7.01495 -5.76356,17.32652 -12.21898,34.41324 -18.43458,51.582648 8.26634,-7.557958 16.55749,-15.088348 24.83486,-22.632528 2.381501,-2.16926 4.964221,-4.53147 5.694661,-7.80879 0.72768,-3.21668 -0.6257,-6.40855 -2.161,-9.17043 -1.77234,-3.29662 -4.035321,-6.4306 -4.867741,-10.14067 -0.41897,-1.92119 -0.29217,-4.1318 1.00332,-5.70568 0.93441,-1.18524 2.635081,-1.79715 4.071151,-1.21832 1.41677,0.54025 2.27125,1.9019 2.94105,3.18636 2.24919,4.51218 3.65218,9.44332 4.13455,14.46266 1.53529,-3.09816 3.08988,-6.18529 4.62794,-9.28069 0.92889,-1.82471 1.75029,-3.78173 3.25802,-5.22331 0.9096,-0.89858 2.23542,-1.46363 3.51988,-1.17146 1.60972,0.35557 2.73983,1.8192 3.17258,3.34072 0.49063,1.61523 -0.0276,3.29661 -0.54852,4.83191 -1.55183,4.29166 -3.98846,8.17538 -6.33688,12.06186 -3.27457,5.14614 -6.7531,10.16824 -10.54862,14.94502 2.16926,-1.44985 4.45429,-2.97412 7.11143,-3.27732 2.5138,-0.33628 5.29222,1.13563 6.12464,3.58879 0.55679,1.67036 -0.34454,3.56123 -1.85779,4.37711 -2.21887,1.23761 -4.84569,1.22107 -7.31264,1.33133 -8.94992,0.24532 -17.673821,4.65274 -23.227901,11.667698 -4.38263,5.59542 -6.6208,12.54698 -11.06957,18.09555 -2.80599,3.38206 -6.76922,7.62745 -11.13021,6.6897 -5.80767,-1.24882 -5.80767,-10.32535 -7.25476,-14.82374 -0.74698,-2.26849 -2.14721,-4.34128 -4.09045,-5.75529 -1.69792,-1.25415 -3.73212,-1.97356 -5.78837,-2.36772 -4.7189,-0.90685 -9.58664,-0.42724 -14.29452,-1.40024 -2.35669,-0.47961 -4.67755,-1.42504 -6.47746,-3.05405 -1.71446,-1.504978 -2.8997,-3.519878 -3.7211,-5.628498 -1.7751,-4.59211 -2.13618,-9.57562 -3.71282,-14.22561 -2.28228,-6.69522 -6.7972,-12.61314 -12.6792898,-16.54372 -1.24037,-0.83793 -2.58823,-1.65382 -3.39033,-2.96034 -0.65326,-1.01985 -0.59538,-2.4697 0.2591,-3.36001 1.44158,-1.56837 4.04634,-1.69792 5.71119,-0.39967 3.4123798,2.42009 3.9057698,7.12245 7.0866198,9.75478 0.006,-4.34403 -0.0165,-8.68531 -0.0248,-13.02659 0.011,-1.25414 -0.12955,-2.60477 0.4989,-3.7459 0.57057,-1.0805 2.14997,-1.37267 3.06784,-0.5623 1.24036,1.03915 1.61799,2.73432 1.79439,4.26961 0.61743,5.98408 1.21281,11.9709 1.83299,17.95773 3.11745,-2.80047 4.55076,-7.34572 3.54193,-11.42238 -0.30596,-1.30101 -0.8021,-2.6406 -0.52095,-3.99122 0.22877,-1.13287 1.43055,-1.92946 2.56342,-1.72824 1.27344,0.17365 2.18304,1.26517 2.65989,2.38701 0.76076,1.85779 0.76351,3.92782 0.60916,5.90138 -0.45205,4.49564 -2.35394,8.64673 -3.66597,12.92461 -1.27895,3.77622 -2.15823,7.97141 -0.87652,11.87167 1.14113,3.64667 4.03532,6.52983 7.43116,8.16436 4.19244,2.05901 8.91409,2.69848 13.53376,2.8804 -2.80873,-4.9146 -5.86279,-10.11586 -5.81042,-15.96212 0.0551,-5.8876 3.79827,-10.8463 4.80986,-16.52717 1.72273,-9.42678 -2.53034,-19.6722 -10.44939,-25.08019 -3.51712,-2.41733 -7.73987,-3.49231 -11.35347,-5.73324 -3.26905,-2.00112 -6.20458,-5.56235 -5.6919,-9.61697 2.48349,-0.96197 5.25639,-0.3473 7.49732,0.94268 4.37987,2.3374 7.16655,6.76964 11.56847,9.0712 1.54632,0.84345 3.31867,1.25966 5.07999,1.15217 0.9537,-2.28503 0,-4.8457 -1.53806,-6.62631 -2.89418,-3.4868 -7.77847,-4.33301 -10.80495,-7.66546 -1.51601,-1.73926 -2.36221,-4.22551 -1.72549,-6.49951 0.5182,-1.79715 2.37874,-3.02098 4.23102,-2.88592 2.74259,0.1709 5.10479,1.88812 6.97912,3.77898 6.20459,6.20183 9.77408,14.63631 11.17432,23.20861 1.65382,10.11036 0.36935,20.42468 -1.66761,30.38068 -0.38038,2.02869 -1.09152,4.10974 -0.56505,6.17977 0.22602,0.95922 0.91787,1.94876 1.97907,2.0342 1.46087,0.0937 2.66816,-0.90133 3.73212,-1.77234 3.32694,-2.71778 5.97029,-6.37548 7.06181,-10.56515 0.85172,-3.05406 0.87653,-6.25145 0.81589,-9.39646 0.0165,-1.57389 -0.0992,-3.3104 0.84069,-4.67204 0.67255,-1.05293 1.9267,-1.87984 3.21668,-1.57389 1.01159,0.19295 1.72824,1.06947 2.03695,2.00939 0.49615,1.54633 0.42173,3.21668 0.12129,4.79608 -0.95095,4.35506 -1.81094,8.76801 -3.53367,12.90256 -1.21556,2.9686 -2.85835,5.79112 -5.08274,8.1175 -2.45316,2.59925 -5.48241,4.68307 -7.45873,7.71231 -1.34786,2.07003 -2.21887,4.64172 -1.63452,7.11418 0.42723,1.97356 1.92945,3.58328 3.74039,4.40468 2.63784,1.20453 5.84074,1.14389 8.41243,-0.21224 2.03971,-1.10255 3.48956,-3.00995 4.64448,-4.96973 2.0342,-3.52539 3.26629,-7.43943 4.2889,-11.35899 1.57389,-6.32862 2.50003,-12.81711 2.86387,-19.32765 0.41621,-6.95431 -0.84621,-14.14567 -4.3523,-20.2207 -1.86331,-3.25251 -4.49839,-6.02266 -7.57726,-8.14231 -2.7729,-2.06176 -5.82144,-3.84789 -8.07064,-6.51881 -2.10311,-2.47522 -3.56123,-5.81593 -2.79495,-9.10152 1.43882,-0.90409 3.25526,-1.0612 4.84844,-0.49615 3.0072,1.02261 5.36114,3.43719 6.8799,6.16875 2.06176,3.21944 3.78173,7.05079 7.41462,8.79832 -2.95482,-5.81317 -6.00336,-11.57674 -8.99402,-17.37062 -0.973,-1.95702 -1.93222,-4.09596 -1.67863,-6.3341305 0.18468,-1.70619 1.76959,-3.10643 3.48129,-3.09816 1.51876,0.006 2.9438,0.85999 3.84789,2.05074 1.03364,1.33959 1.52703,2.9906605 1.99285,4.5948605 2.38426,8.29667 4.76576,16.59057 7.15829,24.88448 3.0072,-5.72773 4.27788,-12.36506 3.42341,-18.79291 -0.37487,-3.40687 -1.37543,-6.69797 -2.16926,-10.0221505 -0.54025,-2.17477 -0.37763,-4.61415 0.86274,-6.52983 z"
     id="Shape"
     fill="url(#linearGradient-3)"
     fill-rule="nonzero"
     style="fill:url(#linearGradient-3);stroke:none;stroke-width:1" />
  <metadata
     id="metadata319">
    <rdf:RDF>
      <cc:Work
         rdf:about="">
        <dc:title>codium_blue_light</dc:title>
      </cc:Work>
    </rdf:RDF>
  </metadata>
</svg>
