<?xml version="1.0" encoding="UTF-8" standalone="no"?>
<!-- Created with Inkscape (http://www.inkscape.org/) -->

<svg
   width="189.61824mm"
   height="189.61824mm"
   viewBox="0 0 189.61824 189.61824"
   version="1.1"
   id="svg5"
   xml:space="preserve"
   inkscape:version="1.2.2 (732a01da63, 2022-12-09)"
   sodipodi:docname="drawing-video.svg"
   xmlns:inkscape="http://www.inkscape.org/namespaces/inkscape"
   xmlns:sodipodi="http://sodipodi.sourceforge.net/DTD/sodipodi-0.dtd"
   xmlns="http://www.w3.org/2000/svg"
   xmlns:svg="http://www.w3.org/2000/svg"><sodipodi:namedview
     id="namedview7"
     pagecolor="#ffffff"
     bordercolor="#000000"
     borderopacity="0.25"
     inkscape:showpageshadow="2"
     inkscape:pageopacity="0.0"
     inkscape:pagecheckerboard="0"
     inkscape:deskcolor="#999999ff"
     inkscape:document-units="mm"
     showgrid="false"
     inkscape:zoom="0.76791526"
     inkscape:cx="-231.14529"
     inkscape:cy="618.55783"
     inkscape:window-width="1920"
     inkscape:window-height="1017"
     inkscape:window-x="-8"
     inkscape:window-y="1072"
     inkscape:window-maximized="1"
     inkscape:current-layer="layer1" /><defs
     id="defs2" /><g
     inkscape:label="Layer 1"
     inkscape:groupmode="layer"
     id="layer1"
     transform="translate(-59.892738,15.218631)"><g
       style="fill:none;stroke:#e5e7eb;stroke-opacity:1"
       id="g209"
       transform="matrix(8.8194444,0,0,8.8194444,48.868523,-26.242846)"><path
         d="M 2,12 C 2,7.28595 2,4.92893 3.46447,3.46447 4.92893,2 7.28595,2 12,2 16.714,2 19.0711,2 20.5355,3.46447 22,4.92893 22,7.28595 22,12 c 0,4.714 0,7.0711 -1.4645,8.5355 C 19.0711,22 16.714,22 12,22 7.28595,22 4.92893,22 3.46447,20.5355 2,19.0711 2,16.714 2,12 Z"
         stroke="#1c274c"
         stroke-width="1.5"
         id="path182"
         style="stroke:#e5e7eb;stroke-opacity:1" /><path
         d="m 17,2.5 v 19"
         stroke="#1c274c"
         stroke-width="1.5"
         stroke-linecap="round"
         id="path184"
         style="stroke:#e5e7eb;stroke-opacity:1" /><path
         d="m 7,2.5 v 19"
         stroke="#1c274c"
         stroke-width="1.5"
         stroke-linecap="round"
         id="path186"
         style="stroke:#e5e7eb;stroke-opacity:1" /><path
         d="m 2,12 h 5 m 15,0 h -5"
         stroke="#1c274c"
         stroke-width="1.5"
         stroke-linecap="round"
         id="path188"
         style="stroke:#e5e7eb;stroke-opacity:1" /><path
         d="M 2.5,7 H 7 M 21.5,7 H 17"
         stroke="#1c274c"
         stroke-width="1.5"
         stroke-linecap="round"
         id="path190"
         style="stroke:#e5e7eb;stroke-opacity:1" /><path
         d="M 2.5,17 H 7 m 14.5,0 H 17"
         stroke="#1c274c"
         stroke-width="1.5"
         stroke-linecap="round"
         id="path192"
         style="stroke:#e5e7eb;stroke-opacity:1" /><path
         d="M 14,12 C 14,11.4722 13.4704,11.1162 12.4112,10.4043 11.3375,9.68271 10.8006,9.3219 10.4003,9.58682 10,9.85174 10,10.5678 10,12 c 0,1.4322 0,2.1483 0.4003,2.4132 0.4003,0.2649 0.9372,-0.0959 2.0109,-0.8175 C 13.4704,12.8838 14,12.5278 14,12 Z"
         stroke="#1c274c"
         stroke-width="1.5"
         stroke-linecap="round"
         id="path194"
         style="stroke:#e5e7eb;stroke-opacity:1" /></g></g></svg>
