<?xml version="1.0" encoding="UTF-8" standalone="no"?>
<!-- Created with Inkscape (http://www.inkscape.org/) -->

<svg
   width="128.00006"
   height="128"
   viewBox="0 0 33.866683 33.866666"
   version="1.1"
   id="svg5"
   xml:space="preserve"
   inkscape:version="1.2.2 (732a01da63, 2022-12-09)"
   sodipodi:docname="inventor.svg"
   xmlns:inkscape="http://www.inkscape.org/namespaces/inkscape"
   xmlns:sodipodi="http://sodipodi.sourceforge.net/DTD/sodipodi-0.dtd"
   xmlns="http://www.w3.org/2000/svg"
   xmlns:svg="http://www.w3.org/2000/svg"><sodipodi:namedview
     id="namedview7"
     pagecolor="#ffffff"
     bordercolor="#000000"
     borderopacity="0.25"
     inkscape:showpageshadow="2"
     inkscape:pageopacity="0.0"
     inkscape:pagecheckerboard="0"
     inkscape:deskcolor="#d1d1d1"
     inkscape:document-units="mm"
     showgrid="false"
     inkscape:zoom="0.35355339"
     inkscape:cx="199.40411"
     inkscape:cy="-299.81327"
     inkscape:window-width="1920"
     inkscape:window-height="1017"
     inkscape:window-x="-8"
     inkscape:window-y="1072"
     inkscape:window-maximized="1"
     inkscape:current-layer="g353" /><defs
     id="defs2"><linearGradient
       id="a"
       gradientTransform="matrix(0.4217,0,0,-0.4217,149.8842,212.399)"
       gradientUnits="userSpaceOnUse"
       x1="-256.81589"
       x2="-319.15302"
       y1="-187.97391"
       y2="-81.333199"><stop
         offset="0"
         stop-color="#d9c185"
         id="stop524" /><stop
         offset="1"
         stop-color="#8e783e"
         id="stop526" /></linearGradient><linearGradient
       id="b"
       gradientTransform="matrix(0.4217,0,0,-0.4217,149.8842,212.399)"
       gradientUnits="userSpaceOnUse"
       x1="-364.26901"
       x2="-262.14819"
       y1="188.44659"
       y2="404.81369"><stop
         offset=".18"
         stop-color="#d9c185"
         id="stop529" /><stop
         offset="1"
         stop-color="#907c44"
         id="stop531" /></linearGradient><linearGradient
       id="c"
       gradientTransform="matrix(0.4217,0,0,-0.4217,149.8842,212.399)"
       gradientUnits="userSpaceOnUse"
       x1="-340.08929"
       x2="-136.2995"
       y1="-126.0891"
       y2="183.96159"><stop
         offset="0"
         stop-color="#d9c185"
         id="stop534" /><stop
         offset=".28"
         stop-color="#c8b176"
         id="stop536" /><stop
         offset="1"
         stop-color="#9f8951"
         id="stop538" /></linearGradient><linearGradient
       id="d"
       gradientTransform="matrix(0.4217,0,0,-0.4217,149.8842,212.399)"
       gradientUnits="userSpaceOnUse"
       x1="-108.7146"
       x2="-108.7146"
       y1="503.689"
       y2="-297.1073"><stop
         offset="0"
         stop-color="#d9c185"
         id="stop541" /><stop
         offset=".23"
         stop-color="#ceb67a"
         id="stop543" /><stop
         offset=".62"
         stop-color="#b0995e"
         id="stop545" /><stop
         offset="1"
         stop-color="#8e783e"
         id="stop547" /></linearGradient><linearGradient
       id="a-6"
       gradientTransform="matrix(0.4217,0,0,-0.4217,149.8842,212.399)"
       gradientUnits="userSpaceOnUse"
       x1="-256.81589"
       x2="-319.15302"
       y1="-187.97391"
       y2="-81.333199"><stop
         offset="0"
         stop-color="#d9c185"
         id="stop524-2" /><stop
         offset="1"
         stop-color="#8e783e"
         id="stop526-4" /></linearGradient><linearGradient
       id="b-9"
       gradientTransform="matrix(0.4217,0,0,-0.4217,149.8842,212.399)"
       gradientUnits="userSpaceOnUse"
       x1="-364.26901"
       x2="-262.14819"
       y1="188.44659"
       y2="404.81369"><stop
         offset=".18"
         stop-color="#d9c185"
         id="stop529-3" /><stop
         offset="1"
         stop-color="#907c44"
         id="stop531-3" /></linearGradient><linearGradient
       id="c-9"
       gradientTransform="matrix(0.4217,0,0,-0.4217,149.8842,212.399)"
       gradientUnits="userSpaceOnUse"
       x1="-340.08929"
       x2="-136.2995"
       y1="-126.0891"
       y2="183.96159"><stop
         offset="0"
         stop-color="#d9c185"
         id="stop534-0" /><stop
         offset=".28"
         stop-color="#c8b176"
         id="stop536-6" /><stop
         offset="1"
         stop-color="#9f8951"
         id="stop538-7" /></linearGradient><linearGradient
       id="d-4"
       gradientTransform="matrix(0.4217,0,0,-0.4217,149.8842,212.399)"
       gradientUnits="userSpaceOnUse"
       x1="-108.7146"
       x2="-108.7146"
       y1="503.689"
       y2="-297.1073"><stop
         offset="0"
         stop-color="#d9c185"
         id="stop541-5" /><stop
         offset=".23"
         stop-color="#ceb67a"
         id="stop543-5" /><stop
         offset=".62"
         stop-color="#b0995e"
         id="stop545-1" /><stop
         offset="1"
         stop-color="#8e783e"
         id="stop547-3" /></linearGradient><pattern
       id="EMFhbasepattern"
       patternUnits="userSpaceOnUse"
       width="6"
       height="6"
       x="0"
       y="0" /><clipPath
       clipPathUnits="userSpaceOnUse"
       id="clipPath4615"><rect
         style="opacity:1;fill:#00ffff;fill-opacity:1;stroke:none;stroke-width:7.55905;stroke-linejoin:round;stroke-dasharray:none;stroke-opacity:1;stop-color:#000000"
         id="rect4617"
         width="230.41061"
         height="253.91049"
         x="12.865318"
         y="538.51312" /></clipPath><pattern
       id="EMFhbasepattern-0"
       patternUnits="userSpaceOnUse"
       width="6"
       height="6"
       x="0"
       y="0" /><clipPath
       clipPathUnits="userSpaceOnUse"
       id="clipPath6188"><path
         style="opacity:1;fill:none;fill-opacity:1;stroke:#f7d31b;stroke-width:0.377953;stroke-linejoin:round;stroke-dasharray:none;stroke-opacity:1;stop-color:#000000"
         d="m 185.24032,392.3881 c 29.01053,-44.04066 0.23026,-74.60784 -27.28661,-62.58211 -15.82304,5.26336 -23.70074,38.38529 8.41161,40.20711 12.80626,-1.79409 14.1277,-11.92498 14.09375,-16.53125 -0.39892,-4.69454 -5.23853,-9.07838 -9.87547,-10.04315 -5.06253,-1.05332 -9.60081,2.9605 -9.84033,6.11247 0.42451,2.76792 3.32823,3.29867 4.74705,2.71193 1.26493,-0.9563 2.53157,-2.0901 3.94223,-1.93787 1.74784,0.18862 3.52756,2.02038 3.55777,4.68787 -0.24989,1.16854 -0.48254,2.44382 -0.94025,3.3078 -2.69343,5.08424 -8.72165,4.84256 -13.15911,2.30671 -3.31505,-1.89444 -5.07114,-5.24031 -5.65064,-8.61451 -0.35319,-14.61565 14.03305,-17.5296 21.5625,-15.125 9.85092,4.08745 12.46691,11.67676 10.89527,21.561 -1.04315,11.28483 -7.82564,20.03868 -9.54188,21.86419 -8.58009,9.1264 -12.16494,10.91681 -22.29089,16.19981 -18.77247,9.5676 -41.42788,12.69023 -65.621318,7.23223 -10.96327,-4.77011 -19.80927,-7.74411 -30.31282,-15.73223 -3.9501,-5.79698 -7.9002,-5.76689 -11.8503,-21.34557 -1.16152,-6.6624 1.08663,-15.65829 2.30436,-15.83121 5.02719,-1.74161 16.15563,-0.46818 28.66758,28.80178 5.39915,7.29774 9.42815,8.08721 13.53382,9.24089 10.376548,0.69619 12.236478,-1.27949 14.341178,-3.17839 5.10934,-3.32168 2.80879,-10.35474 0.69312,-13.21057 -0.79436,-1.07227 -2.3809,-1.32756 -2.3809,-1.32756 -1.10838,-0.39139 -1.97984,0.24393 -2.84347,0.91313 -3.869718,5.09465 -10.477758,7.3045 -13.093748,0.5625 -0.85561,-3.02274 0.56561,-5.16412 4.875,-6.1875 2.19955,-1.6543 2.49216,-4.77307 -1,-6.0625 -6.53937,0.002 -9.0543,5.52904 -10.5625,9.0625 l -1.5625,-0.3125 c -1.27638,-15.35554 -2.20604,-28.21715 -11.51115,-33.33878 -2.45993,-1.4229 -4.48885,-2.22372 -4.48885,-2.22372 -3.03922,-1.97842 -5.81042,-4.49289 -8.51939,-7.13182 -3.84047,-4.08793 -4.20957,-6.78966 -1.2565,-14.07192 2.65363,-5.38042 5.18276,-10.68162 9.08839,-16.85876 l 2.99576,-2.82843 c 0.71137,-0.82561 6.26061,-0.6743 7.10665,0.61802 0.15401,0.23524 0.003,0.70366 -0.22323,1.04041 -1.42706,1.67718 -8.00495,11.2989 -10.19299,15.12647 -1.50418,2.63129 -2.87237,5.18484 -3.719,7.07922 -1.09303,2.44569 -1.13005,4.20895 2.48832,7.97656 3.53788,3.82298 8.38669,6.40057 13.35699,8.86275 7.67046,2.88639 19.68771,4.22565 20.91973,3.68306 1.59008,-0.32447 3.62041,-0.84592 4.87573,-0.3784 1.521118,0.5665 2.131948,2.29535 2.372428,3.85749 2.98715,7.91642 9.237,2.43766 6.82637,-1.17233 l -1.56434,-2.98668 c -0.82806,-3.36988 2.49175,-5.63918 5.76754,-4.84662 2.63618,0.30042 4.43923,3.14062 4.43923,3.14062 1.84339,1.07204 4.60332,1.01343 6.86329,0.0859 2.35202,-1.19713 3.14647,-2.69961 3.38413,-4.32378 0.13742,-1.07963 -0.72351,-3.69363 -1.91536,-4.71553 -12.87383,-12.40219 -26.283448,1.5561 -27.323618,2.75146 -6.79356,0.55702 -15.29149,-2.54195 -22.39446,-7.79429 -0.50742,-0.38263 -0.98647,-0.71482 -0.68817,-1.42592 l 11.8985,-18.72371 c 0.81829,-0.71235 1.52633,-0.65289 2.2291,-0.55662 l 40.294298,15.88673 c 2.77458,1.12754 4.42113,1.05533 7.9531,0.8936 l 67.125,-13.75 1.25,-3.625 c -22.56395,-1.78707 -46.1701,-2.68237 -68.65273,-5.25888 -2.3829,-0.17148 -4.11381,-4.77525 0.0884,-5.67418 l 48.55806,-4.12082 c 0.76653,-0.46029 1.12437,-1.27819 1.22503,-2.32112 0.45457,-4.58107 0.657,-9.01087 0.28125,-13.09375 7.03102,-8.71652 9.99581,-16.33846 8.94419,-24.85166 -1.79347,-14.51882 -14.46245,-26.51729 -27.56919,-27.05459 -21.36448,-20.69144 -48.28124,-33.24372 -74.497398,-30.20711 l -5.14905,32.27037 c -2.77954,1.22655 -4.86468,3.37896 -6.9545,5.52513 -25.788,4.16636 -46.358401,14.50068 -63.399051,31.91161 -40.50514,44.51946 -30.02674,109.59314 -7,135.5 56.712001,67.34119 138.351359,47.30376 172.874999,0.375 z"
         id="path6190"
         sodipodi:nodetypes="ccccsccscsscccsccccccccscccccccccccccscsscccsccccccccccccccccccccccscccccccc" /></clipPath><clipPath
       clipPathUnits="userSpaceOnUse"
       id="clipPath6188-6"><path
         style="opacity:1;fill:none;fill-opacity:1;stroke:#f7d31b;stroke-width:0.377953;stroke-linejoin:round;stroke-dasharray:none;stroke-opacity:1;stop-color:#000000"
         d="m 185.24032,392.3881 c 29.01053,-44.04066 0.23026,-74.60784 -27.28661,-62.58211 -15.82304,5.26336 -23.70074,38.38529 8.41161,40.20711 12.80626,-1.79409 14.1277,-11.92498 14.09375,-16.53125 -0.39892,-4.69454 -5.23853,-9.07838 -9.87547,-10.04315 -5.06253,-1.05332 -9.60081,2.9605 -9.84033,6.11247 0.42451,2.76792 3.32823,3.29867 4.74705,2.71193 1.26493,-0.9563 2.53157,-2.0901 3.94223,-1.93787 1.74784,0.18862 3.52756,2.02038 3.55777,4.68787 -0.24989,1.16854 -0.48254,2.44382 -0.94025,3.3078 -2.69343,5.08424 -8.72165,4.84256 -13.15911,2.30671 -3.31505,-1.89444 -5.07114,-5.24031 -5.65064,-8.61451 -0.35319,-14.61565 14.03305,-17.5296 21.5625,-15.125 9.85092,4.08745 12.46691,11.67676 10.89527,21.561 -1.04315,11.28483 -7.82564,20.03868 -9.54188,21.86419 -8.58009,9.1264 -12.16494,10.91681 -22.29089,16.19981 -18.77247,9.5676 -41.42788,12.69023 -65.621318,7.23223 -10.96327,-4.77011 -19.80927,-7.74411 -30.31282,-15.73223 -3.9501,-5.79698 -7.9002,-5.76689 -11.8503,-21.34557 -1.16152,-6.6624 1.08663,-15.65829 2.30436,-15.83121 5.02719,-1.74161 16.15563,-0.46818 28.66758,28.80178 5.39915,7.29774 9.42815,8.08721 13.53382,9.24089 10.376548,0.69619 12.236478,-1.27949 14.341178,-3.17839 5.10934,-3.32168 2.80879,-10.35474 0.69312,-13.21057 -0.79436,-1.07227 -2.3809,-1.32756 -2.3809,-1.32756 -1.10838,-0.39139 -1.97984,0.24393 -2.84347,0.91313 -3.869718,5.09465 -10.477758,7.3045 -13.093748,0.5625 -0.85561,-3.02274 0.56561,-5.16412 4.875,-6.1875 2.19955,-1.6543 2.49216,-4.77307 -1,-6.0625 -6.53937,0.002 -9.0543,5.52904 -10.5625,9.0625 l -1.5625,-0.3125 c -1.27638,-15.35554 -2.20604,-28.21715 -11.51115,-33.33878 -2.45993,-1.4229 -4.48885,-2.22372 -4.48885,-2.22372 -3.03922,-1.97842 -5.81042,-4.49289 -8.51939,-7.13182 -3.84047,-4.08793 -4.20957,-6.78966 -1.2565,-14.07192 2.65363,-5.38042 5.18276,-10.68162 9.08839,-16.85876 l 2.99576,-2.82843 c 0.71137,-0.82561 6.26061,-0.6743 7.10665,0.61802 0.15401,0.23524 0.003,0.70366 -0.22323,1.04041 -1.42706,1.67718 -8.00495,11.2989 -10.19299,15.12647 -1.50418,2.63129 -2.87237,5.18484 -3.719,7.07922 -1.09303,2.44569 -1.13005,4.20895 2.48832,7.97656 3.53788,3.82298 8.38669,6.40057 13.35699,8.86275 7.67046,2.88639 19.68771,4.22565 20.91973,3.68306 1.59008,-0.32447 3.62041,-0.84592 4.87573,-0.3784 1.521118,0.5665 2.131948,2.29535 2.372428,3.85749 2.98715,7.91642 9.237,2.43766 6.82637,-1.17233 l -1.56434,-2.98668 c -0.82806,-3.36988 2.49175,-5.63918 5.76754,-4.84662 2.63618,0.30042 4.43923,3.14062 4.43923,3.14062 1.84339,1.07204 4.60332,1.01343 6.86329,0.0859 2.35202,-1.19713 3.14647,-2.69961 3.38413,-4.32378 0.13742,-1.07963 -0.72351,-3.69363 -1.91536,-4.71553 -12.87383,-12.40219 -26.283448,1.5561 -27.323618,2.75146 -6.79356,0.55702 -15.29149,-2.54195 -22.39446,-7.79429 -0.50742,-0.38263 -0.98647,-0.71482 -0.68817,-1.42592 l 11.8985,-18.72371 c 0.81829,-0.71235 1.52633,-0.65289 2.2291,-0.55662 l 40.294298,15.88673 c 2.77458,1.12754 4.42113,1.05533 7.9531,0.8936 l 67.125,-13.75 1.25,-3.625 c -22.56395,-1.78707 -46.1701,-2.68237 -68.65273,-5.25888 -2.3829,-0.17148 -4.11381,-4.77525 0.0884,-5.67418 l 48.55806,-4.12082 c 0.76653,-0.46029 1.12437,-1.27819 1.22503,-2.32112 0.45457,-4.58107 0.657,-9.01087 0.28125,-13.09375 7.03102,-8.71652 9.99581,-16.33846 8.94419,-24.85166 -1.79347,-14.51882 -14.46245,-26.51729 -27.56919,-27.05459 -21.36448,-20.69144 -48.28124,-33.24372 -74.497398,-30.20711 l -5.14905,32.27037 c -2.77954,1.22655 -4.86468,3.37896 -6.9545,5.52513 -25.788,4.16636 -46.358401,14.50068 -63.399051,31.91161 -40.50514,44.51946 -30.02674,109.59314 -7,135.5 56.712001,67.34119 138.351359,47.30376 172.874999,0.375 z"
         id="path6190-3"
         sodipodi:nodetypes="ccccsccscsscccsccccccccscccccccccccccscsscccsccccccccccccccccccccccscccccccc" /></clipPath></defs><g
     inkscape:label="Layer 1"
     inkscape:groupmode="layer"
     id="layer1"
     transform="translate(5.2187255,-131.7016)"><g
       id="g353"
       transform="matrix(0.26458333,0,0,0.26458333,-5.183091,132.09501)"><g
         id="g6350"
         transform="matrix(0.125,0,0,0.125,3.5528497,-1.4869031)"
         style="stroke-width:8"><g
           id="a4146af7-d8c6-4437-905c-b7c5e947d02d"
           data-name="container - BRASS"
           style="stroke-width:8"><path
             id="ac180ebf-f580-4162-b9dc-71dd4bfefaef"
             data-name="back layer"
             d="M 185,0.15 915,160 h 79 v 864 H 166 A 52,52 0 0 1 114,972 V 754.2921 L 183.4662,2.4109 Z"
             transform="translate(-29)"
             fill="#705a01"
             style="stroke-width:64" /><path
             id="af2a9fc7-aac9-418c-b476-e82a58a0ac35"
             data-name="primary facade"
             d="m 156,0 h 686 a 52,52 0 0 1 52,52 V 720 H 156 Z"
             fill="#dbae03"
             style="stroke-width:64" /><polygon
             id="a835cc39-4f7b-45f8-9263-278db2292423"
             data-name="flap"
             points="156,720 156,0 0,94 0,814 "
             fill="#eacd5d"
             style="stroke-width:64" /></g><g
           id="bc1c919d-d216-441f-a5e6-9d84261d43cf"
           data-name="product subscript template"
           style="stroke-width:8"><path
             d="m 469.9907,834.5566 v 14.6895 c 0,28.2959 -23.9765,44.4961 -59.4013,44.4961 h -15.12 V 942.127 H 357.6685 V 790.9248 h 56.3769 c 33.9121,0 55.9453,15.7686 55.9453,43.6318 z m -37.8008,2.16 c 0,-12.96 -8.208,-19.0078 -20.9521,-19.0078 h -15.7686 v 49.249 h 13.1758 c 14.2569,0 23.5449,-5.833 23.5449,-20.52 z"
             transform="translate(-29)"
             fill="#ffffff"
             id="path6324"
             style="stroke-width:64" /><path
             d="m 611.2324,919.4463 v 22.6807 c -3.8886,2.16 -9.2881,3.24 -15.12,3.24 -13.1768,0 -23.5449,-3.8887 -31.7529,-20.9522 L 546.2149,887.6941 H 529.583 V 942.127 H 491.7817 V 790.9248 h 57.2417 c 32.8321,0 54.8643,15.7686 54.8643,41.04 v 13.6084 c 0,14.9043 -9.2881,26.5684 -23.9756,33.9131 l 16.8477,31.752 c 2.8086,5.6162 6.48,8.208 12.7441,8.208 z M 529.583,862.8535 h 16.416 c 12.0967,0 20.0889,-6.2637 20.0889,-17.9277 V 834.125 c 0,-11.4473 -8.208,-17.28 -20.0889,-17.28 h -16.416 z"
             transform="translate(-29)"
             fill="#ffffff"
             id="path6326"
             style="stroke-width:64" /><path
             d="m 757.2461,849.2461 v 34.7754 c 0,36.5049 -22.4649,61.5615 -65.4492,61.5615 -42.1211,0 -65.2334,-25.0566 -65.2334,-61.5615 v -34.7754 c 0,-36.7207 22.8965,-61.7773 65.2334,-61.7773 42.9843,0 65.4492,25.0566 65.4492,61.7773 z m -92.8818,-0.2168 v 34.7773 c 0,22.8955 9.288,34.7764 27.4326,34.7764 18.1446,0 27.4331,-11.8809 27.4331,-34.7764 v -34.7773 c 0,-22.68 -9.2891,-34.5605 -27.4326,-34.5605 -18.1435,0 -27.4331,11.8812 -27.4331,34.5605 z"
             transform="translate(-29)"
             fill="#ffffff"
             id="path6328"
             style="stroke-width:64" /></g><g
           id="bdd8b0a2-d30f-461c-95cb-e31cd1c4dd7f"
           data-name="product initial-i *EXCEPTION*"
           style="stroke-width:8"><path
             d="m 603.8809,232.3726 v 255.9336 h 51.3007 V 560.127 H 453.3984 V 488.3062 H 504.13 V 232.3726 h -50.7316 v -71.2505 h 201.7832 v 71.2505 z"
             transform="translate(-29)"
             fill="#ffffff"
             id="path6331"
             style="stroke-width:64" /></g></g></g></g></svg>
