<svg width="62.79444500000001" height="16.933332" xmlns="http://www.w3.org/2000/svg" xmlns:svg="http://www.w3.org/2000/svg">
 <g class="layer">
  <title>Layer 1</title>
  <g id="layer1" transform="translate(-16.620092,-68.041481)">
   <rect fill="#000000" height="16.93333" id="rect550" rx="2.64583" ry="2.64583" stroke-linejoin="round" stroke-width="0.3829" width="62.79445" x="16.62009" y="68.04148"/>
   <g id="g644" transform="translate(-5.8208336)">
    <text fill="#ffffff" font-family="sans-serif" font-size="1.05833px" id="text236" stroke-linejoin="round" stroke-width="0.35269" text-anchor="middle" x="57.68325" xml:space="preserve" y="77.9757">
     <tspan fill="#ffffff" font-family="sans-serif" font-size="5.64444px" font-style="normal" font-weight="normal" id="tspan234" stroke-width="0.35269" x="57.68325" y="77.9757">Visit My Website</tspan>
    </text>
    <path d="m30.35624,73.68603c-0.04951,0 -0.08961,0.0401 -0.08961,0.08961l0,0.90373l-0.78263,-0.45187c-0.04287,-0.02475 -0.09775,-0.01006 -0.12249,0.0328l-0.64161,1.11139c-0.02475,0.0429 -0.01006,0.09775 0.0328,0.1225l0.78263,0.45186l-0.78263,0.45187c-0.04288,0.02473 -0.05756,0.07955 -0.0328,0.1224l0.6416,1.1114c0.02475,0.04286 0.07962,0.05758 0.12249,0.0328l0.78263,-0.45178l0,2.02791c0,0.0495 0.0401,0.0896 0.08961,0.08961l1.28339,0c0.04951,-0.00001 0.08961,-0.04011 0.08961,-0.08961l0,-2.02791l0.78263,0.45178c0.04287,0.02478 0.09775,0.01006 0.12249,-0.0328l0.64161,-1.1114c0.02475,-0.04286 0.01006,-0.09768 -0.0328,-0.12241l-0.78263,-0.45186l0.78263,-0.45186c0.04288,-0.02475 0.05755,-0.07962 0.0328,-0.1225l0,-0.00008l-0.6416,-1.11131c-0.02475,-0.04288 -0.07962,-0.05755 -0.1225,-0.0328l-0.78263,0.45187l0,-0.90373c0,-0.04951 -0.0401,-0.08961 -0.08961,-0.08961l-1.28338,0zm0.2241,0.33068l0.83518,0l0,1.06772c-0.00001,0.06902 0.07466,0.11217 0.13441,0.07769l0.92478,-0.53399l0.41759,0.72338l-0.92478,0.53382c-0.05976,0.03451 -0.05976,0.12081 0,0.15529l0.92478,0.5339l-0.41759,0.72321l-0.92478,-0.5339c-0.05976,-0.03453 -0.13441,0.0086 -0.13441,0.0776l0,2.08454c0,0.04951 -0.04019,0.08961 -0.08969,0.08961l-0.65579,0c-0.04951,0 -0.0897,-0.0401 -0.0897,-0.08961l0,-2.08454c0,-0.06898 -0.07465,-0.11212 -0.13441,-0.0776l-0.92478,0.5339l-0.41759,-0.72321l0.92478,-0.5339c0.05976,-0.03448 0.05976,-0.12079 0,-0.15529l-0.92478,-0.53382l0.41759,-0.72338l0.92478,0.53399c0.05976,0.03449 0.13441,-0.0087 0.13441,-0.07769l0,-1.06772z" fill="#ffffff" id="path390-36" stroke-linecap="round" stroke-width="0.01186"/>
   </g>
  </g>
 </g>
</svg>
